<svg width="188" height="26" viewBox="0 0 188 26" fill="none" xmlns="http://www.w3.org/2000/svg">
<path d="M9.42045 25.3182C14.3977 25.3182 18.0227 22.4659 18.0114 18.5341C18.0227 15.625 16.2045 13.5341 12.9432 13.0682V12.8864C15.4659 12.3409 17.1591 10.4659 17.1477 7.85227C17.1591 4.30682 14.1364 1.40909 9.48864 1.40909C4.96591 1.40909 1.46591 4.10227 1.375 8H5.43182C5.5 6.04545 7.31818 4.82954 9.46591 4.82954C11.6364 4.82954 13.0795 6.14773 13.0682 8.10227C13.0795 10.1364 11.3977 11.4886 8.98864 11.4886H6.93182V14.7386H8.98864C11.9318 14.7386 13.6818 16.2159 13.6705 18.3182C13.6818 20.375 11.8977 21.7841 9.40909 21.7841C7.06818 21.7841 5.26136 20.5682 5.15909 18.6705H0.886364C1 22.6023 4.51136 25.3182 9.42045 25.3182ZM29.0028 25.3182C33.9233 25.3182 37.3551 21.9773 37.3551 17.3523C37.3551 12.875 34.2415 9.64773 30.0142 9.64773C28.1278 9.64773 26.4574 10.3977 25.5938 11.4205H25.4574L26.1278 5.25H36.1392V1.72727H22.6392L21.4233 13.7273L25.2301 14.3523C26.0142 13.4886 27.4915 12.9091 28.8892 12.9205C31.446 12.9318 33.2869 14.8182 33.2756 17.4545C33.2869 20.0568 31.4915 21.9091 29.0028 21.9091C26.9006 21.9091 25.2074 20.5795 25.0597 18.6705H20.9688C21.0824 22.5341 24.4574 25.3182 29.0028 25.3182ZM48.7642 25.4432C54.3778 25.4545 57.7301 21.0227 57.7301 13.3864C57.7301 5.79545 54.3551 1.40909 48.7642 1.40909C43.1733 1.40909 39.8097 5.78409 39.7983 13.3864C39.7983 21.0114 43.1506 25.4432 48.7642 25.4432ZM48.7642 21.8864C45.8665 21.8864 44.0483 18.9773 44.0597 13.3864C44.071 7.84091 45.8778 4.92045 48.7642 4.92045C51.6619 4.92045 53.4688 7.84091 53.4801 13.3864C53.4801 18.9773 51.6733 21.8864 48.7642 21.8864ZM67.4148 21.2727H70.983V15.1932H77.0625V11.625H70.983V5.54545H67.4148V11.625H61.3352V15.1932H67.4148V21.2727ZM91.3153 1.72727H86.6903L94.8835 25H100.088L108.293 1.72727H103.656L97.6108 20.0455H97.3722L91.3153 1.72727ZM110.176 25H114.29V7.54545H110.176V25ZM112.244 5.06818C113.551 5.06818 114.619 4.06818 114.619 2.84091C114.619 1.60227 113.551 0.602272 112.244 0.602272C110.926 0.602272 109.858 1.60227 109.858 2.84091C109.858 4.06818 110.926 5.06818 112.244 5.06818ZM123.997 25.3068C126.997 25.3068 128.349 23.5227 128.997 22.25H129.247V25H133.293V1.72727H129.168V10.4318H128.997C128.372 9.17045 127.088 7.31818 124.009 7.31818C119.974 7.31818 116.804 10.4773 116.804 16.2955C116.804 22.0455 119.884 25.3068 123.997 25.3068ZM125.145 21.9318C122.429 21.9318 120.997 19.5455 120.997 16.2727C120.997 13.0227 122.406 10.6932 125.145 10.6932C127.793 10.6932 129.247 12.8864 129.247 16.2727C129.247 19.6591 127.77 21.9318 125.145 21.9318ZM144.403 25.3409C148.472 25.3409 151.267 23.3523 151.994 20.3182L148.153 19.8864C147.597 21.3636 146.233 22.1364 144.46 22.1364C141.801 22.1364 140.04 20.3864 140.006 17.3977H152.165V16.1364C152.165 10.0114 148.483 7.31818 144.188 7.31818C139.188 7.31818 135.926 10.9886 135.926 16.375C135.926 21.8523 139.142 25.3409 144.403 25.3409ZM140.017 14.625C140.142 12.3977 141.79 10.5227 144.244 10.5227C146.608 10.5227 148.199 12.25 148.222 14.625H140.017ZM162.259 25.3409C167.372 25.3409 170.622 21.7386 170.622 16.3409C170.622 10.9318 167.372 7.31818 162.259 7.31818C157.145 7.31818 153.895 10.9318 153.895 16.3409C153.895 21.7386 157.145 25.3409 162.259 25.3409ZM162.281 22.0455C159.452 22.0455 158.065 19.5227 158.065 16.3295C158.065 13.1364 159.452 10.5795 162.281 10.5795C165.065 10.5795 166.452 13.1364 166.452 16.3295C166.452 19.5227 165.065 22.0455 162.281 22.0455ZM186.909 12.1591C186.341 9.20455 183.977 7.31818 179.886 7.31818C175.682 7.31818 172.818 9.38636 172.83 12.6136C172.818 15.1591 174.386 16.8409 177.739 17.5341L180.716 18.1591C182.318 18.5114 183.068 19.1591 183.068 20.1477C183.068 21.3409 181.773 22.2386 179.818 22.2386C177.932 22.2386 176.705 21.4205 176.352 19.8523L172.341 20.2386C172.852 23.4432 175.545 25.3409 179.83 25.3409C184.193 25.3409 187.273 23.0795 187.284 19.7727C187.273 17.2841 185.67 15.7614 182.375 15.0455L179.398 14.4091C177.625 14.0114 176.92 13.3977 176.932 12.3864C176.92 11.2045 178.227 10.3864 179.943 10.3864C181.841 10.3864 182.841 11.4205 183.159 12.5682L186.909 12.1591Z" fill="white"/>
</svg>
